<?xml version="1.0" standalone="no"?><!DOCTYPE svg PUBLIC "-//W3C//DTD SVG 1.1//EN" "http://www.w3.org/Graphics/SVG/1.1/DTD/svg11.dtd"><svg class="icon" width="256px" height="200.11px" viewBox="0 0 1310 1024" version="1.1" xmlns="http://www.w3.org/2000/svg"><path fill="#616161" d="M480.442735 599.670355a175.711793 174.892624 90 1 0 349.785248 0 175.711793 174.892624 90 1 0-349.785248 0Z"  /><path fill="#616161" d="M1266.845167 175.750294h-302.273435a14.335461 14.335461 0 0 1-13.106707-8.191692L881.426058 24.613577a43.415968 43.415968 0 0 0-40.95846-24.575076h-368.626139a43.415968 43.415968 0 0 0-38.500953 23.346322L359.615278 167.968187a14.335461 14.335461 0 0 1-12.697122 7.782107h-303.092604A43.825552 43.825552 0 0 0 0 219.575846v760.598602A43.825552 43.825552 0 0 0 43.825552 1024h1223.019615A43.825552 43.825552 0 0 0 1310.670719 980.174448V219.575846a43.825552 43.825552 0 0 0-43.825552-43.825552zM484.948166 131.924742l18.840892-40.95846a32.766768 32.766768 0 0 1 28.670922-17.612138h245.750759a32.766768 32.766768 0 0 1 28.670922 19.660061l18.840892 40.95846a40.95846 40.95846 0 0 1-28.670922 58.161013h-283.432543a40.95846 40.95846 0 0 1-28.670922-60.208936zM655.335359 892.523344a292.443404 292.443404 0 1 1 291.214651-292.443405A292.443404 292.443404 0 0 1 655.335359 892.523344z"  /></svg>